# xmcd
#
# Track frame offsets: 
#        150
#        16162
#        31901
#        50467
#        68704
#        87973
#        107017
#        132887
#        149260
#
# Disc length: 2430 seconds
#
# Revision: 0
# Processed by: cddbd v1.5.2PL0 Copyright (c) Steve Scherf et al.
# Submitted via: ExactAudioCopy v0.99pb4
#
DISCID=6f097c09
DTITLE=Mud Morganfield and The Dirty Aces - Live
DYEAR=2008
DGENRE=Blues
TTITLE0=D.A.Strut
TTITLE1=Been Mistreated
TTITLE2=Walkin' Through The Park
TTITLE3=Forty Days And Forty Nights
TTITLE4=What Is That That You Got
TTITLE5=Hoochie Coohie Man
TTITLE6=You Gonna Miss Me
TTITLE7=I'm Ready
TTITLE8=Mannish Boy
EXTD=
EXTT0=
EXTT1=
EXTT2=
EXTT3=
EXTT4=
EXTT5=
EXTT6=
EXTT7=
EXTT8=
PLAYORDER=
